<svg xmlns="http://www.w3.org/2000/svg" viewBox="0 -0.1342 271.0314 58.3398">
  <path d="M 81.257 85.915 L 81.257 72.254 L 87.759 72.254 L 87.759 73.951 L 82.955 73.951 L 82.955 85.915 L 81.257 85.915 Z" transform="matrix(1.128194, 0, 0, 1.128194, -87.210511, -71.826737)" style="fill: rgb(231, 72, 86); text-wrap-mode: nowrap;"/>
  <path d="M 196.531 85.915 L 196.531 73.951 L 191.726 73.951 L 191.726 72.254 L 198.229 72.254 L 198.229 85.915 L 196.531 85.915 Z" transform="matrix(1.128194, 0, 0, 1.128194, -87.210511, -71.826737)" style="fill: rgb(231, 72, 86); text-wrap-mode: nowrap;"/>
  <path d="M 182.123 73.951 L 182.123 72.254 L 193.43 72.254 L 193.43 73.951 L 182.123 73.951 Z" transform="matrix(1.128194, 0, 0, 1.128194, -87.210511, -71.826737)" style="fill: rgb(231, 72, 86); text-wrap-mode: nowrap;"/>
  <path d="M 177.316 85.915 L 177.316 72.254 L 183.818 72.254 L 183.818 73.951 L 179.013 73.951 L 179.013 85.915 L 177.316 85.915 Z" transform="matrix(1.128194, 0, 0, 1.128194, -87.210511, -71.826737)" style="fill: rgb(231, 72, 86); text-wrap-mode: nowrap;"/>
  <path d="M 167.712 85.915 L 167.712 73.951 L 162.908 73.951 L 162.908 72.254 L 169.41 72.254 L 169.41 85.915 L 167.712 85.915 Z" transform="matrix(1.128194, 0, 0, 1.128194, -87.210511, -71.826737)" style="fill: rgb(231, 72, 86); text-wrap-mode: nowrap;"/>
  <path d="M 158.109 85.915 L 158.109 73.951 L 153.304 73.951 L 153.304 72.254 L 164.611 72.254 L 164.611 73.951 L 159.807 73.951 L 159.807 85.915 L 158.109 85.915 Z" transform="matrix(1.128194, 0, 0, 1.128194, -87.210511, -71.826737)" style="fill: rgb(231, 72, 86); text-wrap-mode: nowrap;"/>
  <path d="M 148.497 85.915 L 148.497 72.254 L 155 72.254 L 155 73.951 L 150.195 73.951 L 150.195 85.915 L 148.497 85.915 Z" transform="matrix(1.128194, 0, 0, 1.128194, -87.210511, -71.826737)" style="fill: rgb(231, 72, 86); text-wrap-mode: nowrap;"/>
  <path d="M 138.894 85.915 L 138.894 73.951 L 134.089 73.951 L 134.089 72.254 L 145.396 72.254 L 145.396 73.951 L 140.592 73.951 L 140.592 85.915 L 138.894 85.915 Z" transform="matrix(1.128194, 0, 0, 1.128194, -87.210511, -71.826737)" style="fill: rgb(231, 72, 86); text-wrap-mode: nowrap;"/>
  <path d="M 129.282 85.915 L 129.282 73.951 L 124.478 73.951 L 124.478 72.254 L 130.98 72.254 L 130.98 85.915 L 129.282 85.915 Z" transform="matrix(1.128194, 0, 0, 1.128194, -87.210511, -71.826737)" style="fill: rgb(231, 72, 86); text-wrap-mode: nowrap;"/>
  <path d="M 114.874 73.951 L 114.874 72.254 L 126.181 72.254 L 126.181 73.951 L 114.874 73.951 Z" transform="matrix(1.128194, 0, 0, 1.128194, -87.210511, -71.826737)" style="fill: rgb(231, 72, 86); text-wrap-mode: nowrap;"/>
  <path d="M 110.075 85.915 L 110.075 73.951 L 105.271 73.951 L 105.271 72.254 L 116.578 72.254 L 116.578 73.951 L 111.773 73.951 L 111.773 85.915 L 110.075 85.915 Z" transform="matrix(1.128194, 0, 0, 1.128194, -87.210511, -71.826737)" style="fill: rgb(231, 72, 86); text-wrap-mode: nowrap;"/>
  <path d="M 100.464 85.915 L 100.464 73.951 L 95.659 73.951 L 95.659 72.254 L 102.161 72.254 L 102.161 85.915 L 100.464 85.915 Z" transform="matrix(1.128194, 0, 0, 1.128194, -87.210511, -71.826737)" style="fill: rgb(231, 72, 86); text-wrap-mode: nowrap;"/>
  <path d="M 86.056 73.951 L 86.056 72.254 L 97.363 72.254 L 97.363 73.951 L 86.056 73.951 Z" transform="matrix(1.128194, 0, 0, 1.128194, -87.210511, -71.826737)" style="fill: rgb(231, 72, 86); text-wrap-mode: nowrap;"/>
  <path d="M 206.143 85.915 L 206.143 72.254 L 212.645 72.254 L 212.645 73.951 L 207.84 73.951 L 207.84 85.915 L 206.143 85.915 Z" transform="matrix(1.128194, 0, 0, 1.128194, -87.210511, -71.826737)" style="fill: rgb(22, 198, 12); text-wrap-mode: nowrap;"/>
  <path d="M 311.813 85.915 L 311.813 73.951 L 307.008 73.951 L 307.008 72.254 L 313.511 72.254 L 313.511 85.915 L 311.813 85.915 Z" transform="matrix(1.128194, 0, 0, 1.128194, -87.210511, -71.826737)" style="fill: rgb(22, 198, 12); text-wrap-mode: nowrap;"/>
  <path d="M 297.397 73.951 L 297.397 72.254 L 308.704 72.254 L 308.704 73.951 L 297.397 73.951 Z" transform="matrix(1.128194, 0, 0, 1.128194, -87.210511, -71.826737)" style="fill: rgb(22, 198, 12); text-wrap-mode: nowrap;"/>
  <path d="M 292.598 85.915 L 292.598 72.254 L 299.1 72.254 L 299.1 73.951 L 294.296 73.951 L 294.296 85.915 L 292.598 85.915 Z" transform="matrix(1.128194, 0, 0, 1.128194, -87.210511, -71.826737)" style="fill: rgb(22, 198, 12); text-wrap-mode: nowrap;"/>
  <path d="M 282.995 85.915 L 282.995 73.951 L 278.19 73.951 L 278.19 72.254 L 284.692 72.254 L 284.692 85.915 L 282.995 85.915 Z" transform="matrix(1.128194, 0, 0, 1.128194, -87.210511, -71.826737)" style="fill: rgb(22, 198, 12); text-wrap-mode: nowrap;"/>
  <path d="M 268.578 73.951 L 268.578 72.254 L 279.885 72.254 L 279.885 73.951 L 268.578 73.951 Z" transform="matrix(1.128194, 0, 0, 1.128194, -87.210511, -71.826737)" style="fill: rgb(22, 198, 12); text-wrap-mode: nowrap;"/>
  <path d="M 263.78 85.915 L 263.78 72.254 L 270.282 72.254 L 270.282 73.951 L 265.477 73.951 L 265.477 85.915 L 263.78 85.915 Z" transform="matrix(1.128194, 0, 0, 1.128194, -87.210511, -71.826737)" style="fill: rgb(22, 198, 12); text-wrap-mode: nowrap;"/>
  <path d="M 254.168 85.915 L 254.168 73.951 L 249.363 73.951 L 249.363 72.254 L 260.67 72.254 L 260.67 73.951 L 255.866 73.951 L 255.866 85.915 L 254.168 85.915 Z" transform="matrix(1.128194, 0, 0, 1.128194, -87.210511, -71.826737)" style="fill: rgb(22, 198, 12); text-wrap-mode: nowrap;"/>
  <path d="M 234.961 85.915 L 234.961 73.951 L 230.156 73.951 L 230.156 72.254 L 241.463 72.254 L 241.463 73.951 L 236.659 73.951 L 236.659 85.915 L 234.961 85.915 Z" transform="matrix(1.128194, 0, 0, 1.128194, -87.210511, -71.826737)" style="fill: rgb(22, 198, 12); text-wrap-mode: nowrap;"/>
  <path d="M 225.349 85.915 L 225.349 73.951 L 220.545 73.951 L 220.545 72.254 L 227.047 72.254 L 227.047 85.915 L 225.349 85.915 Z" transform="matrix(1.128194, 0, 0, 1.128194, -87.210511, -71.826737)" style="fill: rgb(22, 198, 12); text-wrap-mode: nowrap;"/>
  <path d="M 210.941 73.951 L 210.941 72.254 L 222.248 72.254 L 222.248 73.951 L 210.941 73.951 Z" transform="matrix(1.128194, 0, 0, 1.128194, -87.210511, -71.826737)" style="fill: rgb(22, 198, 12); text-wrap-mode: nowrap;"/>
  <path d="M 81.257 102.315 L 81.257 76.69 L 82.955 76.69 L 82.955 88.654 L 87.759 88.654 L 87.759 90.351 L 82.955 90.351 L 82.955 102.315 L 81.257 102.315 Z" transform="matrix(1.128194, 0, 0, 1.128194, -87.210511, -71.826737)" style="fill: rgb(231, 72, 86); text-wrap-mode: nowrap;"/>
  <path d="M 196.531 102.315 L 196.531 90.351 L 191.726 90.351 L 191.726 88.654 L 196.531 88.654 L 196.531 76.69 L 198.229 76.69 L 198.229 102.315 L 196.531 102.315 Z" transform="matrix(1.128194, 0, 0, 1.128194, -87.210511, -71.826737)" style="fill: rgb(231, 72, 86); text-wrap-mode: nowrap;"/>
  <path d="M 182.123 90.351 L 182.123 88.654 L 193.43 88.654 L 193.43 90.351 L 182.123 90.351 Z" transform="matrix(1.128194, 0, 0, 1.128194, -87.210511, -71.826737)" style="fill: rgb(231, 72, 86); text-wrap-mode: nowrap;"/>
  <path d="M 177.316 102.315 L 177.316 76.69 L 179.013 76.69 L 179.013 88.654 L 183.818 88.654 L 183.818 90.351 L 179.013 90.351 L 179.013 102.315 L 177.316 102.315 Z" transform="matrix(1.128194, 0, 0, 1.128194, -87.210511, -71.826737)" style="fill: rgb(231, 72, 86); text-wrap-mode: nowrap;"/>
  <path d="M 167.712 102.315 L 167.712 76.69 L 169.41 76.69 L 169.41 102.315 L 167.712 102.315 Z" transform="matrix(1.128194, 0, 0, 1.128194, -87.210511, -71.826737)" style="fill: rgb(231, 72, 86); text-wrap-mode: nowrap;"/>
  <path d="M 158.109 102.315 L 158.109 76.69 L 159.807 76.69 L 159.807 102.315 L 158.109 102.315 Z" transform="matrix(1.128194, 0, 0, 1.128194, -87.210511, -71.826737)" style="fill: rgb(231, 72, 86); text-wrap-mode: nowrap;"/>
  <path d="M 138.894 102.315 L 138.894 76.69 L 140.592 76.69 L 140.592 102.315 L 138.894 102.315 Z" transform="matrix(1.128194, 0, 0, 1.128194, -87.210511, -71.826737)" style="fill: rgb(231, 72, 86); text-wrap-mode: nowrap;"/>
  <path d="M 124.478 90.351 L 124.478 88.654 L 129.282 88.654 L 129.282 76.69 L 130.98 76.69 L 130.98 90.351 L 124.478 90.351 Z" transform="matrix(1.128194, 0, 0, 1.128194, -87.210511, -71.826737)" style="fill: rgb(231, 72, 86); text-wrap-mode: nowrap;"/>
  <path d="M 119.679 102.315 L 119.679 90.351 L 114.874 90.351 L 114.874 88.654 L 126.181 88.654 L 126.181 90.351 L 121.376 90.351 L 121.376 102.315 L 119.679 102.315 Z" transform="matrix(1.128194, 0, 0, 1.128194, -87.210511, -71.826737)" style="fill: rgb(231, 72, 86); text-wrap-mode: nowrap;"/>
  <path d="M 110.075 102.315 L 110.075 76.69 L 111.773 76.69 L 111.773 88.654 L 116.578 88.654 L 116.578 90.351 L 111.773 90.351 L 111.773 102.315 L 110.075 102.315 Z" transform="matrix(1.128194, 0, 0, 1.128194, -87.210511, -71.826737)" style="fill: rgb(231, 72, 86); text-wrap-mode: nowrap;"/>
  <path d="M 90.86 102.315 L 90.86 90.351 L 86.056 90.351 L 86.056 88.654 L 90.86 88.654 L 90.86 76.69 L 92.558 76.69 L 92.558 102.315 L 90.86 102.315 Z" transform="matrix(1.128194, 0, 0, 1.128194, -87.210511, -71.826737)" style="fill: rgb(231, 72, 86); text-wrap-mode: nowrap;"/>
  <path d="M 206.143 102.315 L 206.143 76.69 L 207.84 76.69 L 207.84 88.654 L 212.645 88.654 L 212.645 90.351 L 207.84 90.351 L 207.84 102.315 L 206.143 102.315 Z" transform="matrix(1.128194, 0, 0, 1.128194, -87.210511, -71.826737)" style="fill: rgb(22, 198, 12); text-wrap-mode: nowrap;"/>
  <path d="M 302.201 102.315 L 302.201 90.351 L 297.397 90.351 L 297.397 88.654 L 302.201 88.654 L 302.201 76.69 L 303.899 76.69 L 303.899 102.315 L 302.201 102.315 Z" transform="matrix(1.128194, 0, 0, 1.128194, -87.210511, -71.826737)" style="fill: rgb(22, 198, 12); text-wrap-mode: nowrap;"/>
  <path d="M 292.598 102.315 L 292.598 76.69 L 294.296 76.69 L 294.296 88.654 L 299.1 88.654 L 299.1 90.351 L 294.296 90.351 L 294.296 102.315 L 292.598 102.315 Z" transform="matrix(1.128194, 0, 0, 1.128194, -87.210511, -71.826737)" style="fill: rgb(22, 198, 12); text-wrap-mode: nowrap;"/>
  <path d="M 282.995 102.315 L 282.995 90.351 L 278.19 90.351 L 278.19 88.654 L 284.692 88.654 L 284.692 102.315 L 282.995 102.315 Z" transform="matrix(1.128194, 0, 0, 1.128194, -87.210511, -71.826737)" style="fill: rgb(22, 198, 12); text-wrap-mode: nowrap;"/>
  <path d="M 268.578 90.351 L 268.578 88.654 L 279.885 88.654 L 279.885 90.351 L 268.578 90.351 Z" transform="matrix(1.128194, 0, 0, 1.128194, -87.210511, -71.826737)" style="fill: rgb(22, 198, 12); text-wrap-mode: nowrap;"/>
  <path d="M 263.78 90.351 L 263.78 76.69 L 265.477 76.69 L 265.477 88.654 L 270.282 88.654 L 270.282 90.351 L 263.78 90.351 Z" transform="matrix(1.128194, 0, 0, 1.128194, -87.210511, -71.826737)" style="fill: rgb(22, 198, 12); text-wrap-mode: nowrap;"/>
  <path d="M 254.168 102.315 L 254.168 76.69 L 255.866 76.69 L 255.866 102.315 L 254.168 102.315 Z" transform="matrix(1.128194, 0, 0, 1.128194, -87.210511, -71.826737)" style="fill: rgb(22, 198, 12); text-wrap-mode: nowrap;"/>
  <path d="M 234.961 102.315 L 234.961 76.69 L 236.659 76.69 L 236.659 102.315 L 234.961 102.315 Z" transform="matrix(1.128194, 0, 0, 1.128194, -87.210511, -71.826737)" style="fill: rgb(22, 198, 12); text-wrap-mode: nowrap;"/>
  <path d="M 215.746 102.315 L 215.746 90.351 L 210.941 90.351 L 210.941 88.654 L 215.746 88.654 L 215.746 76.69 L 217.444 76.69 L 217.444 102.315 L 215.746 102.315 Z" transform="matrix(1.128194, 0, 0, 1.128194, -87.210511, -71.826737)" style="fill: rgb(22, 198, 12); text-wrap-mode: nowrap;"/>
  <path d="M 81.257 106.751 L 81.257 93.09 L 82.955 93.09 L 82.955 105.054 L 87.759 105.054 L 87.759 106.751 L 81.257 106.751 Z" transform="matrix(1.128194, 0, 0, 1.128194, -87.210511, -71.826737)" style="fill: rgb(231, 72, 86); text-wrap-mode: nowrap;"/>
  <path d="M 191.726 106.751 L 191.726 105.054 L 196.531 105.054 L 196.531 93.09 L 198.229 93.09 L 198.229 105.054 L 203.033 105.054 L 203.033 106.751 L 191.726 106.751 Z" transform="matrix(1.128194, 0, 0, 1.128194, -87.210511, -71.826737)" style="fill: rgb(231, 72, 86); text-wrap-mode: nowrap;"/>
  <path d="M 172.511 106.751 L 172.511 105.054 L 177.316 105.054 L 177.316 93.09 L 179.013 93.09 L 179.013 105.054 L 183.818 105.054 L 183.818 106.751 L 172.511 106.751 Z" transform="matrix(1.128194, 0, 0, 1.128194, -87.210511, -71.826737)" style="fill: rgb(231, 72, 86); text-wrap-mode: nowrap;"/>
  <path d="M 162.908 106.751 L 162.908 105.054 L 167.712 105.054 L 167.712 93.09 L 169.41 93.09 L 169.41 106.751 L 162.908 106.751 Z" transform="matrix(1.128194, 0, 0, 1.128194, -87.210511, -71.826737)" style="fill: rgb(231, 72, 86); text-wrap-mode: nowrap;"/>
  <path d="M 153.304 106.751 L 153.304 105.054 L 158.109 105.054 L 158.109 93.09 L 159.807 93.09 L 159.807 105.054 L 164.611 105.054 L 164.611 106.751 L 153.304 106.751 Z" transform="matrix(1.128194, 0, 0, 1.128194, -87.210511, -71.826737)" style="fill: rgb(231, 72, 86); text-wrap-mode: nowrap;"/>
  <path d="M 143.693 106.751 L 143.693 105.054 L 155 105.054 L 155 106.751 L 143.693 106.751 Z" transform="matrix(1.128194, 0, 0, 1.128194, -87.210511, -71.826737)" style="fill: rgb(231, 72, 86); text-wrap-mode: nowrap;"/>
  <path d="M 134.089 106.751 L 134.089 105.054 L 138.894 105.054 L 138.894 93.09 L 140.592 93.09 L 140.592 105.054 L 145.396 105.054 L 145.396 106.751 L 134.089 106.751 Z" transform="matrix(1.128194, 0, 0, 1.128194, -87.210511, -71.826737)" style="fill: rgb(231, 72, 86); text-wrap-mode: nowrap;"/>
  <path d="M 124.478 106.751 L 124.478 105.054 L 135.785 105.054 L 135.785 106.751 L 124.478 106.751 Z" transform="matrix(1.128194, 0, 0, 1.128194, -87.210511, -71.826737)" style="fill: rgb(231, 72, 86); text-wrap-mode: nowrap;"/>
  <path d="M 119.679 106.751 L 119.679 93.09 L 121.376 93.09 L 121.376 105.054 L 126.181 105.054 L 126.181 106.751 L 119.679 106.751 Z" transform="matrix(1.128194, 0, 0, 1.128194, -87.210511, -71.826737)" style="fill: rgb(231, 72, 86); text-wrap-mode: nowrap;"/>
  <path d="M 105.271 106.751 L 105.271 105.054 L 110.075 105.054 L 110.075 93.09 L 111.773 93.09 L 111.773 105.054 L 116.578 105.054 L 116.578 106.751 L 105.271 106.751 Z" transform="matrix(1.128194, 0, 0, 1.128194, -87.210511, -71.826737)" style="fill: rgb(231, 72, 86); text-wrap-mode: nowrap;"/>
  <path d="M 206.143 106.751 L 206.143 93.09 L 207.84 93.09 L 207.84 105.054 L 212.645 105.054 L 212.645 106.751 L 206.143 106.751 Z" transform="matrix(1.128194, 0, 0, 1.128194, -87.210511, -71.826737)" style="fill: rgb(22, 198, 12); text-wrap-mode: nowrap;"/>
  <path d="M 307.008 106.751 L 307.008 105.054 L 311.813 105.054 L 311.813 93.09 L 313.511 93.09 L 313.511 106.751 L 307.008 106.751 Z" transform="matrix(1.128194, 0, 0, 1.128194, -87.210511, -71.826737)" style="fill: rgb(22, 198, 12); text-wrap-mode: nowrap;"/>
  <path d="M 297.397 106.751 L 297.397 105.054 L 308.704 105.054 L 308.704 106.751 L 297.397 106.751 Z" transform="matrix(1.128194, 0, 0, 1.128194, -87.210511, -71.826737)" style="fill: rgb(22, 198, 12); text-wrap-mode: nowrap;"/>
  <path d="M 292.598 106.751 L 292.598 93.09 L 294.296 93.09 L 294.296 105.054 L 299.1 105.054 L 299.1 106.751 L 292.598 106.751 Z" transform="matrix(1.128194, 0, 0, 1.128194, -87.210511, -71.826737)" style="fill: rgb(22, 198, 12); text-wrap-mode: nowrap;"/>
  <path d="M 278.19 106.751 L 278.19 105.054 L 282.995 105.054 L 282.995 93.09 L 284.692 93.09 L 284.692 106.751 L 278.19 106.751 Z" transform="matrix(1.128194, 0, 0, 1.128194, -87.210511, -71.826737)" style="fill: rgb(22, 198, 12); text-wrap-mode: nowrap;"/>
  <path d="M 268.578 106.751 L 268.578 105.054 L 279.885 105.054 L 279.885 106.751 L 268.578 106.751 Z" transform="matrix(1.128194, 0, 0, 1.128194, -87.210511, -71.826737)" style="fill: rgb(22, 198, 12); text-wrap-mode: nowrap;"/>
  <path d="M 263.78 106.751 L 263.78 93.09 L 265.477 93.09 L 265.477 105.054 L 270.282 105.054 L 270.282 106.751 L 263.78 106.751 Z" transform="matrix(1.128194, 0, 0, 1.128194, -87.210511, -71.826737)" style="fill: rgb(22, 198, 12); text-wrap-mode: nowrap;"/>
  <path d="M 249.363 106.751 L 249.363 105.054 L 254.168 105.054 L 254.168 93.09 L 255.866 93.09 L 255.866 106.751 L 249.363 106.751 Z" transform="matrix(1.128194, 0, 0, 1.128194, -87.210511, -71.826737)" style="fill: rgb(22, 198, 12); text-wrap-mode: nowrap;"/>
  <path d="M 239.76 106.751 L 239.76 105.054 L 251.067 105.054 L 251.067 106.751 L 239.76 106.751 Z" transform="matrix(1.128194, 0, 0, 1.128194, -87.210511, -71.826737)" style="fill: rgb(22, 198, 12); text-wrap-mode: nowrap;"/>
  <path d="M 234.961 106.751 L 234.961 93.09 L 236.659 93.09 L 236.659 105.054 L 241.463 105.054 L 241.463 106.751 L 234.961 106.751 Z" transform="matrix(1.128194, 0, 0, 1.128194, -87.210511, -71.826737)" style="fill: rgb(22, 198, 12); text-wrap-mode: nowrap;"/>
</svg>